{
  "accessors": [
    {
      "bufferView": 2,
      "componentType": 5126,
      "count": 6069,
      "max": [
        69.12957763671875,
        39.81404113769531,
        143.86373901367188
      ],
      "min": [
        -69.12957763671875,
        0.0,
        -143.86373901367188
      ],
      "type": "VEC3"
    },
    {
      "bufferView": 2,
      "byteOffset": 72828,
      "componentType": 5126,
      "count": 6069,
      "max": [
        1.0,
        1.0,
        1.0
      ],
      "min": [
        -1.0,
        -1.0,
        -1.0
      ],
      "type": "VEC3"
    },
    {
      "bufferView": 3,
      "componentType": 5126,
      "count": 6069,
      "max": [
        1.0,
        1.0,
        1.0,
        1.0
      ],
      "min": [
        -1.0,
        -1.0,
        -1.0,
        -1.0
      ],
      "type": "VEC4"
    },
    {
      "bufferView": 1,
      "componentType": 5126,
      "count": 6069,
      "max": [
        1.6967190504074097,
        0.9968140721321106
      ],
      "min": [
        -0.8834410905838013,
        0.00015736743807792664
      ],
      "type": "VEC2"
    },
    {
      "bufferView": 1,
      "byteOffset": 48552,
      "componentType": 5126,
      "count": 6069,
      "max": [
        1.6967190504074097,
        0.9968140721321106
      ],
      "min": [
        -0.8834410905838013,
        0.00015736743807792664
      ],
      "type": "VEC2"
    },
    {
      "bufferView": 1,
      "byteOffset": 97104,
      "componentType": 5126,
      "count": 6069,
      "max": [
        1.6967190504074097,
        0.9968140721321106
      ],
      "min": [
        -0.8834410905838013,
        0.00015736743807792664
      ],
      "type": "VEC2"
    },
    {
      "bufferView": 0,
      "componentType": 5125,
      "count": 25536,
      "type": "SCALAR"
    }
  ],
  "asset": {
    "extras": {
      "author": "drcrazzie (https://sketchfab.com/drcrazzie)",
      "license": "CC-BY-4.0 (http://creativecommons.org/licenses/by/4.0/)",
      "source": "https://sketchfab.com/3d-models/life-raft-11354f705e594d89a866eebf10571148",
      "title": "Life Raft"
    },
    "generator": "Sketchfab-14.49.0",
    "version": "2.0"
  },
  "bufferViews": [
    {
      "buffer": 0,
      "byteLength": 102144,
      "name": "floatBufferViews",
      "target": 34963
    },
    {
      "buffer": 0,
      "byteLength": 145656,
      "byteOffset": 102144,
      "byteStride": 8,
      "name": "floatBufferViews",
      "target": 34962
    },
    {
      "buffer": 0,
      "byteLength": 145656,
      "byteOffset": 247800,
      "byteStride": 12,
      "name": "floatBufferViews",
      "target": 34962
    },
    {
      "buffer": 0,
      "byteLength": 97104,
      "byteOffset": 393456,
      "byteStride": 16,
      "name": "floatBufferViews",
      "target": 34962
    }
  ],
  "buffers": [
    {
      "byteLength": 490560,
      "uri": "scene.bin"
    }
  ],
  "images": [
    {
      "uri": "textures/M_Lifeboat_baseColor.jpeg"
    },
    {
      "uri": "textures/M_Lifeboat_metallicRoughness.png"
    },
    {
      "uri": "textures/M_Lifeboat_normal.png"
    }
  ],
  "materials": [
    {
      "doubleSided": true,
      "name": "M_Lifeboat",
      "normalTexture": {
        "index": 2
      },
      "occlusionTexture": {
        "index": 1
      },
      "pbrMetallicRoughness": {
        "baseColorTexture": {
          "index": 0
        },
        "metallicRoughnessTexture": {
          "index": 1
        }
      }
    }
  ],
  "meshes": [
    {
      "name": "SM_Lifeboat.004_M_Lifeboat_0",
      "primitives": [
        {
          "attributes": {
            "NORMAL": 1,
            "POSITION": 0,
            "TANGENT": 2,
            "TEXCOORD_0": 3,
            "TEXCOORD_1": 4,
            "TEXCOORD_2": 5
          },
          "indices": 6,
          "material": 0,
          "mode": 4
        }
      ]
    }
  ],
  "nodes": [
    {
      "children": [
        1
      ],
      "matrix": [
        1.0,
        0.0,
        0.0,
        0.0,
        0.0,
        2.220446049250313e-16,
        -1.0,
        0.0,
        0.0,
        1.0,
        2.220446049250313e-16,
        0.0,
        0.0,
        0.0,
        0.0,
        1.0
      ],
      "name": "Sketchfab_model"
    },
    {
      "children": [
        2
      ],
      "matrix": [
        0.009999999776482582,
        0.0,
        0.0,
        0.0,
        0.0,
        0.0,
        0.009999999776482582,
        0.0,
        0.0,
        -0.009999999776482582,
        0.0,
        0.0,
        0.0,
        0.0,
        0.0,
        1.0
      ],
      "name": "13b21f8963cf4207a13c6a7d7899a6a1.fbx"
    },
    {
      "children": [
        3
      ],
      "name": "RootNode"
    },
    {
      "children": [
        4
      ],
      "name": "SM_Lifeboat.004"
    },
    {
      "mesh": 0,
      "name": "SM_Lifeboat.004_M_Lifeboat_0"
    }
  ],
  "samplers": [
    {
      "magFilter": 9729,
      "minFilter": 9987,
      "wrapS": 10497,
      "wrapT": 10497
    }
  ],
  "scene": 0,
  "scenes": [
    {
      "name": "Sketchfab_Scene",
      "nodes": [
        0
      ]
    }
  ],
  "textures": [
    {
      "sampler": 0,
      "source": 0
    },
    {
      "sampler": 0,
      "source": 1
    },
    {
      "sampler": 0,
      "source": 2
    }
  ]
}
